<?xml version="1.0" encoding="UTF-8" standalone="no"?>
<!-- Created with Inkscape (http://www.inkscape.org/) -->

<svg
   width="7680"
   height="1379.4188"
   viewBox="0 0 2032 364.97123"
   version="1.1"
   id="svg5"
   xml:space="preserve"
   inkscape:export-filename="../../../Desktop/hisobchi-logo.svg"
   inkscape:export-xdpi="96"
   inkscape:export-ydpi="96"
   inkscape:version="1.2.2 (b0a8486541, 2022-12-01)"
   sodipodi:docname="hisobchi.svg"
   xmlns:inkscape="http://www.inkscape.org/namespaces/inkscape"
   xmlns:sodipodi="http://sodipodi.sourceforge.net/DTD/sodipodi-0.dtd"
   xmlns:xlink="http://www.w3.org/1999/xlink"
   xmlns="http://www.w3.org/2000/svg"
   xmlns:svg="http://www.w3.org/2000/svg"
   xmlns:rdf="http://www.w3.org/1999/02/22-rdf-syntax-ns#"
   xmlns:cc="http://creativecommons.org/ns#"
   xmlns:dc="http://purl.org/dc/elements/1.1/"><title
     id="title5740">Hisobchi Logo</title><sodipodi:namedview
     id="namedview7"
     pagecolor="#02544f"
     bordercolor="#999999"
     borderopacity="1"
     inkscape:showpageshadow="false"
     inkscape:pageopacity="0"
     inkscape:pagecheckerboard="0"
     inkscape:deskcolor="#d1d1d1"
     inkscape:document-units="mm"
     showgrid="false"
     showguides="true"
     inkscape:zoom="0.1720072"
     inkscape:cx="3520.2015"
     inkscape:cy="2293.5086"
     inkscape:window-width="1854"
     inkscape:window-height="1015"
     inkscape:window-x="66"
     inkscape:window-y="28"
     inkscape:window-maximized="1"
     inkscape:current-layer="layer1-3" /><defs
     id="defs2"><linearGradient
       inkscape:collect="always"
       id="linearGradient5129"><stop
         style="stop-color:#ffffff;stop-opacity:1;"
         offset="0.7541033"
         id="stop5125" /><stop
         style="stop-color:#ffffff;stop-opacity:0;"
         offset="1"
         id="stop5127" /></linearGradient><linearGradient
       inkscape:collect="always"
       id="linearGradient5007"><stop
         style="stop-color:#ffffff;stop-opacity:1;"
         offset="0.75"
         id="stop5003" /><stop
         style="stop-color:#ffffff;stop-opacity:0;"
         offset="1"
         id="stop5005" /></linearGradient><linearGradient
       id="linearGradient4885"
       inkscape:swatch="solid"><stop
         style="stop-color:#ffffff;stop-opacity:1;"
         offset="0"
         id="stop4883" /></linearGradient><linearGradient
       inkscape:collect="always"
       id="linearGradient2849"><stop
         style="stop-color:#ffffff;stop-opacity:1;"
         offset="0.60402584"
         id="stop2845" /><stop
         style="stop-color:#ffffff;stop-opacity:0;"
         offset="1"
         id="stop2847" /></linearGradient><radialGradient
       inkscape:collect="always"
       xlink:href="#linearGradient2849"
       id="radialGradient2853"
       cx="980.00079"
       cy="691.59705"
       fx="980.00079"
       fy="691.59705"
       r="764.18762"
       gradientTransform="matrix(1.1754926,0,0,0.00726199,-145.95328,692.32301)"
       gradientUnits="userSpaceOnUse" /><linearGradient
       inkscape:collect="always"
       xlink:href="#linearGradient5007"
       id="linearGradient5009"
       x1="1859.0463"
       y1="1137.9425"
       x2="1887.1833"
       y2="1137.9425"
       gradientUnits="userSpaceOnUse"
       gradientTransform="matrix(1.1754926,0,2.980572e-8,1.0079737,-3883.2229,-168.44979)" /><linearGradient
       inkscape:collect="always"
       xlink:href="#linearGradient5129"
       id="linearGradient5013"
       gradientUnits="userSpaceOnUse"
       gradientTransform="matrix(1.1754926,0,2.980572e-8,1.0079737,-442.43278,-2165.6166)"
       x1="1859.0463"
       y1="1137.9425"
       x2="1887.1833"
       y2="1137.9425" /></defs><g
     inkscape:label="Main"
     inkscape:groupmode="layer"
     id="layer1-3"
     transform="translate(20.014366,-383.17773)"><rect
       style="opacity:0;fill:#ffffff;fill-rule:evenodd;stroke-width:5.05054;paint-order:fill markers stroke"
       id="rect649"
       width="2032"
       height="364.97125"
       x="-20.014366"
       y="383.17773" /><rect
       style="display:none;fill:#02544f;fill-opacity:1;fill-rule:evenodd;stroke:none;stroke-width:5.34699;paint-order:fill markers stroke"
       id="rect5383"
       width="2032"
       height="1143"
       x="-20.014353"
       y="-5.8366413"
       inkscape:label="bg"
       sodipodi:insensitive="true" /><path
       id="rect111-6-3"
       style="display:inline;fill:url(#radialGradient2853);fill-opacity:1;stroke:none;stroke-width:0.185298;paint-order:fill markers stroke"
       inkscape:label="line"
       d="m 963.89834,691.7959 v 0.005 c -285.40841,-0.0111 -570.81156,1.82518 -856.16496,5.89896 290.0697,3.39281 580.05932,5.08639 869.99906,5.19616 l 11.36005,-11.08906 c -8.39805,-0.003 -16.79595,-0.01 -25.19415,-0.01 z m 70.21686,0.0317 -1.2748,0.93487 -10.3697,10.12198 c 293.9837,-0.0408 587.9245,-1.72379 881.8567,-4.90397 -290.0485,-3.64907 -580.1343,-5.83651 -870.2122,-6.15167 z"
       inkscape:export-filename="../../../Desktop/hisobchi.svg"
       inkscape:export-xdpi="96"
       inkscape:export-ydpi="96" /><rect
       style="display:inline;fill:url(#linearGradient5009);fill-opacity:1;fill-rule:nonzero;stroke-width:5.60823;paint-order:fill markers stroke"
       id="rect1876-5-7"
       width="33.074856"
       height="49.922066"
       x="-1697.928"
       y="953.60553"
       transform="matrix(-1,0,-0.71570103,0.69840678,0,0)"
       inkscape:label="left" /><rect
       style="display:inline;fill:url(#linearGradient5013);fill-opacity:1;fill-rule:nonzero;stroke-width:5.60823;paint-order:fill markers stroke"
       id="rect5011"
       width="33.074856"
       height="49.922066"
       x="1742.8623"
       y="-1043.5619"
       transform="matrix(1,0,0.71570103,-0.69840678,0,0)"
       inkscape:label="right" /><g
       aria-label="HISOBCHI"
       id="text976-5"
       style="font-style:italic;font-size:287.502px;font-family:Ubuntu;-inkscape-font-specification:'Ubuntu, Italic';display:inline;fill:#ffffff;stroke-width:12.6887;paint-order:fill markers stroke"
       inkscape:label="hisobchi"><path
         d="m 405.7879,623.39539 47.72533,-199.2389 h 22.42516 l -20.98765,85.3881 h 99.4757 l 20.41264,-85.3881 h 22.42516 l -47.43783,199.2389 h -22.42516 l 22.71266,-94.58817 h -99.1882 l -22.71266,94.58817 z"
         id="path380"
         inkscape:label="h" /><path
         d="m 599.27685,623.39539 47.72533,-199.2389 h 22.42516 l -47.43783,199.2389 z"
         id="path382"
         inkscape:label="i" /><path
         d="m 714.27749,627.70792 q -9.77507,0 -19.26263,-2.01252 -9.48757,-1.72501 -18.11263,-4.88753 -8.33756,-3.45003 -15.52511,-7.76256 l 11.21258,-18.97513 q 8.33756,6.03754 20.12514,10.35007 12.07508,4.02503 25.01267,4.02503 13.2251,0 25.01268,-4.02503 11.78758,-4.31253 19.26264,-13.51259 7.76255,-9.20007 7.76255,-23.86267 0,-10.06257 -4.60003,-16.67512 -4.60003,-6.61254 -12.07509,-11.21257 -7.18755,-4.88754 -15.52511,-9.20007 -10.06257,-5.46254 -19.83764,-11.50008 -9.48756,-6.32504 -15.5251,-16.10011 -6.03755,-9.77507 -6.03755,-25.01268 0,-14.3751 7.76256,-27.60019 8.05005,-13.22509 24.43767,-21.56265 16.38761,-8.33756 41.40029,-8.33756 13.22509,0 24.72517,2.87502 11.78759,2.58752 24.15017,8.91256 l -11.21258,18.40013 q -9.48756,-6.03754 -19.55013,-8.62506 -10.06257,-2.58752 -21.27515,-2.58752 -12.07509,0 -23.00016,3.73753 -10.63758,3.45002 -17.53763,11.50008 -6.61254,8.05006 -6.61254,21.27515 0,10.06257 4.31253,16.67512 4.31253,6.61254 11.50008,11.21257 7.18755,4.31253 15.2376,8.62506 10.35008,5.17504 20.12515,11.50008 10.06257,6.32505 16.38761,16.38762 6.32504,9.77507 6.32504,26.45018 0,11.78759 -4.88753,23.00017 -4.60003,10.92507 -14.3751,19.83764 -9.48757,8.62506 -24.43767,13.80009 -14.95011,4.88754 -35.36275,4.88754 z"
         id="path384"
         inkscape:label="s" /><path
         d="m 904.02874,627.70792 q -19.55013,0 -35.93775,-8.62506 -16.38761,-8.62506 -26.45018,-26.16269 -9.77507,-17.82512 -9.77507,-44.27531 0,-23.00016 6.03754,-42.8378 6.32505,-19.83764 17.25012,-35.65025 10.92508,-16.10011 25.30018,-27.31269 14.3751,-11.21258 30.76272,-16.96262 16.67511,-6.03754 34.21273,-6.03754 19.55014,0 35.93776,8.62506 16.38761,8.62506 26.16271,26.16268 10.0625,17.53763 10.0625,43.98781 0,23.28766 -6.325,43.1253 -6.0375,19.83764 -16.96262,35.65025 -10.92508,15.81261 -25.30018,27.31269 -14.3751,11.21258 -31.05022,17.25013 -16.38761,5.75004 -33.92524,5.75004 z m 2.01252,-19.83764 q 13.51259,0 26.45018,-4.88754 12.93759,-4.88753 24.15017,-14.0876 11.21258,-9.48756 19.55014,-23.00016 8.33756,-13.51259 12.93759,-31.05021 4.88754,-17.53763 4.88754,-38.52527 0,-18.97514 -6.90005,-31.33772 -6.61255,-12.65009 -18.11263,-18.97514 -11.21258,-6.32504 -25.58768,-6.32504 -13.51259,0 -26.45018,4.88753 -12.9376,4.88754 -24.15017,14.3751 -11.21258,9.20007 -19.55014,22.71266 -8.33756,13.5126 -13.22509,31.05022 -4.60004,17.25012 -4.60004,38.23777 0,18.97513 6.61255,31.62522 6.90005,12.65009 18.40013,18.97513 11.50008,6.32505 25.58768,6.32505 z"
         id="path386"
         inkscape:label="o" /><path
         d="m 1088.0301,625.1204 q -14.0876,0 -27.6002,-1.43751 -13.2251,-1.43751 -24.7252,-4.02503 l 46.0003,-191.76384 q 10.0626,-2.30002 23.2877,-4.02503 13.5126,-1.72501 27.0252,-1.72501 17.2501,0 32.2002,4.31253 15.2376,4.02502 24.4377,13.80009 9.2001,9.77507 9.2001,27.02519 0,12.36259 -5.4626,22.71266 -5.4625,10.06257 -14.6626,17.53762 -9.2,7.18755 -20.4126,10.92508 13.5126,3.73753 20.7001,14.6626 7.4751,10.63758 7.4751,23.28767 0,19.55013 -8.0501,32.77523 -7.7625,13.22509 -21.2751,21.27515 -13.5126,7.76255 -31.0503,11.21257 -17.5376,3.45003 -37.0877,3.45003 z m 1.4375,-18.68763 q 13.5126,0 26.4502,-2.01252 12.9376,-2.01251 23.2876,-7.18755 10.3501,-5.17503 16.3877,-14.6626 6.325,-9.77507 6.325,-24.72517 0,-10.63758 -4.8875,-16.96262 -4.6001,-6.32505 -14.9501,-9.20007 -10.3501,-2.87502 -27.0252,-2.87502 h -35.9378 l -17.5376,75.61303 q 5.75,1.15001 12.9376,1.72501 7.1875,0.28751 14.9501,0.28751 z m -5.4625,-96.02568 h 26.7376 q 22.7127,0 36.8003,-4.88753 14.0876,-4.88753 20.4127,-13.51259 6.6125,-8.91257 6.6125,-20.41265 0,-16.38761 -12.0751,-23.28766 -11.7876,-7.18755 -35.0752,-7.18755 -7.4751,0 -14.6626,0.575 -7.1876,0.57501 -12.3626,1.43751 z"
         id="path388"
         inkscape:label="b" /><path
         d="m 1301.3568,627.70792 q -21.5627,0 -38.2378,-8.05006 -16.6751,-8.33756 -26.1627,-25.58768 -9.2001,-17.25012 -9.2001,-44.27531 0,-29.90021 9.2001,-53.76288 9.2001,-24.15017 25.3002,-41.11278 16.3876,-16.96262 37.3752,-25.87519 21.2752,-9.20006 44.8504,-9.20006 13.5126,0 25.3001,3.16252 12.0751,2.87502 24.1502,9.48757 l -9.4876,19.55014 q -10.6375,-6.32505 -21.5626,-9.20007 -10.9251,-3.16252 -22.4252,-3.16252 -17.8251,0 -33.9252,7.76255 -16.1001,7.47506 -28.4627,21.85016 -12.3626,14.3751 -19.5501,34.50024 -7.1876,20.12514 -7.1876,45.13781 0,28.75021 12.6501,43.70031 12.6501,14.9501 37.9503,14.9501 22.1376,0 34.5002,-4.60003 12.6501,-4.60003 18.9751,-8.05005 l 2.8751,19.55013 q -11.5001,6.32505 -26.7377,9.77507 -14.9501,3.45003 -30.1877,3.45003 z"
         id="path390"
         inkscape:label="c" /><path
         d="m 1391.3447,623.39539 47.7253,-199.2389 h 22.4252 l -20.9877,85.3881 h 99.4757 l 20.4126,-85.3881 h 22.4252 l -47.4378,199.2389 h -22.4252 l 22.7127,-94.58817 h -99.1882 l -22.7127,94.58817 z"
         id="path392"
         inkscape:label="h" /><path
         d="m 1584.8337,623.39539 47.7253,-199.2389 h 22.4252 l -47.4379,199.2389 z"
         id="path394"
         inkscape:label="i" /></g></g><metadata
     id="metadata5738"><rdf:RDF><cc:Work
         rdf:about=""><dc:creator><cc:Agent><dc:title>Saidkamol MIrsaidov</dc:title></cc:Agent></dc:creator><dc:publisher><cc:Agent><dc:title>Saidkamol Mirsaidov</dc:title></cc:Agent></dc:publisher><dc:title>Hisobchi Logo</dc:title><dc:date>14.12.2025</dc:date></cc:Work></rdf:RDF></metadata></svg>
